<svg xmlns="http://www.w3.org/2000/svg"><symbol id="mechastilts" viewBox="0 0 256 256"><path fill="#fff" d="M68.7 147.8h57.1v23.33H68.7zm57.2-20V85.3l-30.6 42.5h30.6zm4.2-46.9v46.9h58.6c-6.5-26.1-30.3-45.8-58.6-46.9zm-6.4.2a62.7 62.7 0 0 0-56.4 46.7H90zm6.4 66.7h9.6v23.33h-9.6z"/><path fill="#fff" d="M128 0L16 64v128l112 64 112-64V64zm91.5 147.8h-28v25.4a1.9 1.9 0 0 1-2.1 2.1H66.6a1.9 1.9 0 0 1-2.1-2.1v-25.4h-28a2.4 2.4 0 0 1-2.2-2.1 2.3 2.3 0 0 1 2.2-2.1h15.9v-13.7a1.9 1.9 0 0 1 2.1-2.1h8.3a67.2 67.2 0 0 1 65-51.1c.2-.2.4-.2.8 0a66.9 66.9 0 0 1 64.6 51.1h8.3a1.9 1.9 0 0 1 2.1 2.1v13.7h15.9a2.3 2.3 0 0 1 2.2 2.1 2.4 2.4 0 0 1-2.2 2.1z"/><path fill="#fff" d="M56.6 132h142.7v11.56H56.6zm87.3 15.8h43.3v23.33h-43.3z"/></symbol><symbol id="spacebubbles" viewBox="0 0 256 256"><path fill="#fff" d="M97 149.9H83l-18.7 21.8 3 4.2 35.8-18.7-6.1-7.3zm-25.9-15.2h116.2v10.93H71.1zm101.5-4.2a50.1 50.1 0 0 0 2.5-16c0-25-20.6-45.4-45.8-45.4s-46.1 20.4-46.1 45.4c0 5.5.4 11.2 2.5 16zm-86.7 40.6h28.9l-8.7-10.5-20.2 10.5zm73.1-21.2l-6.4 7.3 36.1 18.7 3-4-18.7-22h-14z"/><path fill="#fff" d="M128 0L16 64v128l112 64 112-64V64zm68 173l-4.9 6.9a2.3 2.3 0 0 1-2.8.7l-10.2-5.3H77.7l-10.2 5.3a2.3 2.3 0 0 1-2.8-.7l-4.9-6.9a2.2 2.2 0 0 1 .2-2.5l17.7-20.6H69a2.1 2.1 0 0 1-2.2-2.1v-15.2a2.1 2.1 0 0 1 2.2-2.1h12.3a57.4 57.4 0 0 1-2.4-16c0-27.1 22.5-49.6 50.4-49.6s50.1 22.5 50.1 49.6a50.8 50.8 0 0 1-2.3 16h12.3a2 2 0 0 1 2.1 2.1v15.2a2 2 0 0 1-2.1 2.1h-10.9l17.5 20.6a2.3 2.3 0 0 1 0 2.5z"/><path fill="#fff" d="M141.2 171.1h28.9l-20.2-10.5-8.7 10.5zm-38.7-21.2l17.8 21.2h15.3l17.9-21.2h-51z"/></symbol><symbol id="superdomes" viewBox="0 0 256 256"><path fill="#fff" d="M121.4 158.8H135v13.24h-13.6zm6.8-87.6c-24.9 0-45.7 14.9-46.8 42h93.5c-1.1-27.1-21.9-42-46.7-42zM78 158.8h13.6v13.24H78zm61.2 0h21.2v13.24h-21.2zm-43.3 0h21.2v13.24H95.9z"/><path fill="#fff" d="M128.2 1l-112 64v128l112 64 112-64V65zm67.1 155.7a2 2 0 0 1-2.1 2.1h-10.7v13.3h10.7a2.3 2.3 0 0 1 2.1 2.1 2.3 2.3 0 0 1-2.1 2.1h-130a2.3 2.3 0 0 1-2.1-2.1 2.2 2.2 0 0 1 2.1-2.1h10.6v-13.3H63.2a1.9 1.9 0 0 1-2.1-2.1v-41.4a2 2 0 0 1 2.1-2.1h14c1.1-29.8 23.6-46.2 51-46.2s49.9 16.4 50.9 46.2h14.1a2.1 2.1 0 0 1 2.1 2.1z"/><path fill="#fff" d="M65.3 154.6H191v-37.2H65.3zm61.8-14.3h51.8a2.2 2.2 0 1 1 0 4.3h-51.8a2.2 2.2 0 0 1 0-4.3zm37.6 18.5h13.6v13.24h-13.6z"/></symbol><symbol id="mechastilts" viewBox="0 0 256 256"><path fill="#fff" d="M68.7 147.8h57.1v23.33H68.7zm57.2-20V85.3l-30.6 42.5h30.6zm4.2-46.9v46.9h58.6c-6.5-26.1-30.3-45.8-58.6-46.9zm-6.4.2a62.7 62.7 0 0 0-56.4 46.7H90zm6.4 66.7h9.6v23.33h-9.6z"/><path fill="#fff" d="M128 0L16 64v128l112 64 112-64V64zm91.5 147.8h-28v25.4a1.9 1.9 0 0 1-2.1 2.1H66.6a1.9 1.9 0 0 1-2.1-2.1v-25.4h-28a2.4 2.4 0 0 1-2.2-2.1 2.3 2.3 0 0 1 2.2-2.1h15.9v-13.7a1.9 1.9 0 0 1 2.1-2.1h8.3a67.2 67.2 0 0 1 65-51.1c.2-.2.4-.2.8 0a66.9 66.9 0 0 1 64.6 51.1h8.3a1.9 1.9 0 0 1 2.1 2.1v13.7h15.9a2.3 2.3 0 0 1 2.2 2.1 2.4 2.4 0 0 1-2.2 2.1z"/><path fill="#fff" d="M56.6 132h142.7v11.56H56.6zm87.3 15.8h43.3v23.33h-43.3z"/></symbol><symbol id="spacebubbles" viewBox="0 0 256 256"><path fill="#fff" d="M97 149.9H83l-18.7 21.8 3 4.2 35.8-18.7-6.1-7.3zm-25.9-15.2h116.2v10.93H71.1zm101.5-4.2a50.1 50.1 0 0 0 2.5-16c0-25-20.6-45.4-45.8-45.4s-46.1 20.4-46.1 45.4c0 5.5.4 11.2 2.5 16zm-86.7 40.6h28.9l-8.7-10.5-20.2 10.5zm73.1-21.2l-6.4 7.3 36.1 18.7 3-4-18.7-22h-14z"/><path fill="#fff" d="M128 0L16 64v128l112 64 112-64V64zm68 173l-4.9 6.9a2.3 2.3 0 0 1-2.8.7l-10.2-5.3H77.7l-10.2 5.3a2.3 2.3 0 0 1-2.8-.7l-4.9-6.9a2.2 2.2 0 0 1 .2-2.5l17.7-20.6H69a2.1 2.1 0 0 1-2.2-2.1v-15.2a2.1 2.1 0 0 1 2.2-2.1h12.3a57.4 57.4 0 0 1-2.4-16c0-27.1 22.5-49.6 50.4-49.6s50.1 22.5 50.1 49.6a50.8 50.8 0 0 1-2.3 16h12.3a2 2 0 0 1 2.1 2.1v15.2a2 2 0 0 1-2.1 2.1h-10.9l17.5 20.6a2.3 2.3 0 0 1 0 2.5z"/><path fill="#fff" d="M141.2 171.1h28.9l-20.2-10.5-8.7 10.5zm-38.7-21.2l17.8 21.2h15.3l17.9-21.2h-51z"/></symbol><symbol id="superdomes" viewBox="0 0 256 256"><path fill="#fff" d="M121.4 158.8H135v13.24h-13.6zm6.8-87.6c-24.9 0-45.7 14.9-46.8 42h93.5c-1.1-27.1-21.9-42-46.7-42zM78 158.8h13.6v13.24H78zm61.2 0h21.2v13.24h-21.2zm-43.3 0h21.2v13.24H95.9z"/><path fill="#fff" d="M128.2 1l-112 64v128l112 64 112-64V65zm67.1 155.7a2 2 0 0 1-2.1 2.1h-10.7v13.3h10.7a2.3 2.3 0 0 1 2.1 2.1 2.3 2.3 0 0 1-2.1 2.1h-130a2.3 2.3 0 0 1-2.1-2.1 2.2 2.2 0 0 1 2.1-2.1h10.6v-13.3H63.2a1.9 1.9 0 0 1-2.1-2.1v-41.4a2 2 0 0 1 2.1-2.1h14c1.1-29.8 23.6-46.2 51-46.2s49.9 16.4 50.9 46.2h14.1a2.1 2.1 0 0 1 2.1 2.1z"/><path fill="#fff" d="M65.3 154.6H191v-37.2H65.3zm61.8-14.3h51.8a2.2 2.2 0 1 1 0 4.3h-51.8a2.2 2.2 0 0 1 0-4.3zm37.6 18.5h13.6v13.24h-13.6z"/></symbol><symbol id="mechastilts" viewBox="0 0 256 256"><path fill="#fff" d="M68.7 147.8h57.1v23.33H68.7zm57.2-20V85.3l-30.6 42.5h30.6zm4.2-46.9v46.9h58.6c-6.5-26.1-30.3-45.8-58.6-46.9zm-6.4.2a62.7 62.7 0 0 0-56.4 46.7H90zm6.4 66.7h9.6v23.33h-9.6z"/><path fill="#fff" d="M128 0L16 64v128l112 64 112-64V64zm91.5 147.8h-28v25.4a1.9 1.9 0 0 1-2.1 2.1H66.6a1.9 1.9 0 0 1-2.1-2.1v-25.4h-28a2.4 2.4 0 0 1-2.2-2.1 2.3 2.3 0 0 1 2.2-2.1h15.9v-13.7a1.9 1.9 0 0 1 2.1-2.1h8.3a67.2 67.2 0 0 1 65-51.1c.2-.2.4-.2.8 0a66.9 66.9 0 0 1 64.6 51.1h8.3a1.9 1.9 0 0 1 2.1 2.1v13.7h15.9a2.3 2.3 0 0 1 2.2 2.1 2.4 2.4 0 0 1-2.2 2.1z"/><path fill="#fff" d="M56.6 132h142.7v11.56H56.6zm87.3 15.8h43.3v23.33h-43.3z"/></symbol><symbol id="superdomes" viewBox="0 0 256 256"><path fill="#fff" d="M121.4 158.8H135v13.24h-13.6zm6.8-87.6c-24.9 0-45.7 14.9-46.8 42h93.5c-1.1-27.1-21.9-42-46.7-42zM78 158.8h13.6v13.24H78zm61.2 0h21.2v13.24h-21.2zm-43.3 0h21.2v13.24H95.9z"/><path fill="#fff" d="M128.2 1l-112 64v128l112 64 112-64V65zm67.1 155.7a2 2 0 0 1-2.1 2.1h-10.7v13.3h10.7a2.3 2.3 0 0 1 2.1 2.1 2.3 2.3 0 0 1-2.1 2.1h-130a2.3 2.3 0 0 1-2.1-2.1 2.2 2.2 0 0 1 2.1-2.1h10.6v-13.3H63.2a1.9 1.9 0 0 1-2.1-2.1v-41.4a2 2 0 0 1 2.1-2.1h14c1.1-29.8 23.6-46.2 51-46.2s49.9 16.4 50.9 46.2h14.1a2.1 2.1 0 0 1 2.1 2.1z"/><path fill="#fff" d="M65.3 154.6H191v-37.2H65.3zm61.8-14.3h51.8a2.2 2.2 0 1 1 0 4.3h-51.8a2.2 2.2 0 0 1 0-4.3zm37.6 18.5h13.6v13.24h-13.6z"/></symbol><symbol id="spacebubbles" viewBox="0 0 256 256"><path fill="#fff" d="M97 149.9H83l-18.7 21.8 3 4.2 35.8-18.7-6.1-7.3zm-25.9-15.2h116.2v10.93H71.1zm101.5-4.2a50.1 50.1 0 0 0 2.5-16c0-25-20.6-45.4-45.8-45.4s-46.1 20.4-46.1 45.4c0 5.5.4 11.2 2.5 16zm-86.7 40.6h28.9l-8.7-10.5-20.2 10.5zm73.1-21.2l-6.4 7.3 36.1 18.7 3-4-18.7-22h-14z"/><path fill="#fff" d="M128 0L16 64v128l112 64 112-64V64zm68 173l-4.9 6.9a2.3 2.3 0 0 1-2.8.7l-10.2-5.3H77.7l-10.2 5.3a2.3 2.3 0 0 1-2.8-.7l-4.9-6.9a2.2 2.2 0 0 1 .2-2.5l17.7-20.6H69a2.1 2.1 0 0 1-2.2-2.1v-15.2a2.1 2.1 0 0 1 2.2-2.1h12.3a57.4 57.4 0 0 1-2.4-16c0-27.1 22.5-49.6 50.4-49.6s50.1 22.5 50.1 49.6a50.8 50.8 0 0 1-2.3 16h12.3a2 2 0 0 1 2.1 2.1v15.2a2 2 0 0 1-2.1 2.1h-10.9l17.5 20.6a2.3 2.3 0 0 1 0 2.5z"/><path fill="#fff" d="M141.2 171.1h28.9l-20.2-10.5-8.7 10.5zm-38.7-21.2l17.8 21.2h15.3l17.9-21.2h-51z"/></symbol></svg>