<svg xmlns="http://www.w3.org/2000/svg" id="Layer_1" width="256" height="256" viewBox="0 0 256 256"><path fill="#fff" d="M60.3 147.8h65.3v23.33H60.3zm65.3-20V85.3l-35 42.5h35zm4.8-46.9v46.9h67c-7.5-26.1-34.7-45.8-67-46.9zm-7.3.2c-31 1.7-57 21.2-64.5 46.7h25.9zm7.3 66.7h10.9v23.33h-10.9z"/><path fill="#fff" d="M128 0L0 64v128l128 64 128-64V64zm104.6 147.8h-32v25.4c0 1.3-1 2.1-2.5 2.1H57.8a2.1 2.1 0 0 1-2.4-2.1v-25.4h-32a2.6 2.6 0 0 1-2.5-2.1 2.5 2.5 0 0 1 2.5-2.1h18.2v-13.7a2.1 2.1 0 0 1 2.4-2.1h9.5c8-29.2 38.3-50.9 74.3-51.1.2-.2.4-.2.9 0 35.9.2 65.8 22.1 73.8 51.1h9.5a2.1 2.1 0 0 1 2.4 2.1v13.7h18.2a2.4 2.4 0 0 1 2.4 2.1 2.5 2.5 0 0 1-2.4 2.1z"/><path fill="#fff" d="M46.4 132h163.1v11.56H46.4zm99.8 15.8h49.5v23.33h-49.5z"/></svg>