<svg xmlns="http://www.w3.org/2000/svg" width="256" height="256" viewBox="0 0 256 256"><path fill="#fff" d="M92.6 149.9H76.5l-21.3 21.8 3.4 4.2 41-18.7-7-7.3zm-29.7-15.2h132.8v10.93H62.9zm116.1-4.2a45.4 45.4 0 0 0 2.9-16c0-25-23.6-45.4-52.4-45.4s-52.7 20.4-52.7 45.4c0 5.5.5 11.2 2.9 16zm-99.1 40.6h33l-9.9-10.5-23.1 10.5zm83.5-21.2l-7.2 7.3 41.2 18.7 3.4-4-21.3-22h-16.1z"/><path fill="#fff" d="M128 0L0 64v128l128 64 128-64V64zm77.7 173l-5.6 6.9a2.9 2.9 0 0 1-3.2.7l-11.6-5.3H70.5l-11.7 5.3a2.8 2.8 0 0 1-3.1-.7l-5.6-6.9a1.9 1.9 0 0 1 .2-2.5l20.2-20.6h-10a2.2 2.2 0 0 1-2.4-2.1v-15.2a2.2 2.2 0 0 1 2.4-2.1h14.1a51.2 51.2 0 0 1-2.7-16c0-27.1 25.8-49.6 57.6-49.6s57.2 22.5 57.2 49.6a45.9 45.9 0 0 1-2.6 16h14a2.2 2.2 0 0 1 2.5 2.1v15.2a2.2 2.2 0 0 1-2.5 2.1h-12.3l19.9 20.6a2 2 0 0 1 0 2.5z"/><path fill="#fff" d="M143 171.1h33.1L153 160.6l-10 10.5zm-44.1-21.2l20.4 21.2h17.4l20.4-21.2H98.9z"/></svg>