<svg xmlns="http://www.w3.org/2000/svg" id="Layer_1" width="256" height="256" viewBox="0 0 256 256"><path fill="#fff" d="M120.4 158.8h15.5v13.24h-15.5zm7.8-87.6c-28.4 0-52.2 14.9-53.4 42h106.8c-1.2-27.1-25-42-53.4-42zm-57.3 87.6h15.5v13.24H70.9zm69.9 0h24.3v13.24h-24.3zm-49.5 0h24.3v13.24H91.3z"/><path fill="#fff" d="M128.2 1L.2 65v128l128 64 128-64V65zm76.7 155.7c0 1.3-1 2.1-2.5 2.1h-12.1v13.3h12.1a2.4 2.4 0 0 1 2.5 2.1 2.5 2.5 0 0 1-2.5 2.1H53.9a2.5 2.5 0 0 1-2.4-2.1 2.4 2.4 0 0 1 2.4-2.1H66v-13.3H53.9c-1.5 0-2.4-.8-2.4-2.1v-41.4a2.1 2.1 0 0 1 2.4-2.1h16c1.2-29.8 27-46.2 58.3-46.2s57 16.4 58.2 46.2h16a2.2 2.2 0 0 1 2.5 2.1z"/><path fill="#fff" d="M56.3 154.6H200v-37.2H56.3zm70.7-14.3h59.2a2.2 2.2 0 1 1 0 4.3H127a2.2 2.2 0 1 1 0-4.3zm42.9 18.5h15.5v13.24h-15.5z"/></svg>